<svg width="414" height="220" viewBox="0 0 414 220" fill="none" xmlns="http://www.w3.org/2000/svg">
<path d="M77.0299 117.835L95.5677 149.896L77.0299 181.957H39.9544L21.4166 149.896L39.9544 117.835H77.0299Z" fill="#60F69E"/>
<path d="M115.842 142.779V155.34H114.525V149.538H106.648V155.34H105.331V142.779H106.648V148.371H114.525V142.779H115.842Z" fill="#60F69E"/>
<path d="M125.635 154.621C124.617 154.053 123.839 153.305 123.269 152.348C122.7 151.391 122.401 150.285 122.401 149.088C122.401 147.892 122.671 146.786 123.269 145.829C123.839 144.871 124.617 144.094 125.635 143.556C126.654 142.987 127.762 142.718 129.019 142.718C130.277 142.718 131.385 142.987 132.404 143.556C133.392 144.094 134.2 144.871 134.77 145.829C135.339 146.815 135.638 147.892 135.638 149.118C135.638 150.315 135.339 151.421 134.77 152.408C134.2 153.395 133.392 154.143 132.404 154.681C131.415 155.219 130.277 155.518 129.019 155.518C127.792 155.429 126.654 155.16 125.635 154.621ZM131.715 153.575C132.523 153.126 133.152 152.498 133.602 151.72C134.051 150.913 134.29 150.045 134.29 149.058C134.29 148.072 134.051 147.204 133.602 146.397C133.152 145.589 132.523 144.991 131.715 144.542C130.906 144.094 130.008 143.855 129.019 143.855C128.031 143.855 127.133 144.094 126.324 144.542C125.516 144.991 124.887 145.619 124.408 146.397C123.958 147.204 123.719 148.072 123.719 149.058C123.719 150.045 123.958 150.943 124.408 151.72C124.857 152.528 125.516 153.126 126.324 153.575C127.133 154.023 128.031 154.262 129.019 154.262C130.008 154.262 130.906 154.023 131.715 153.575Z" fill="#60F69E"/>
<path d="M155.254 142.778V155.339H153.966V145.29L149.055 153.724H148.426L143.484 145.35V155.339H142.197V142.778H143.305L148.755 152.079L154.176 142.778H155.254Z" fill="#60F69E"/>
<path d="M176.008 142.778V155.339H174.72V145.29L169.809 153.724H169.18L164.238 145.35V155.339H162.951V142.778H164.059L169.509 152.079L174.93 142.778H176.008Z" fill="#60F69E"/>
<path d="M188.017 151.002V155.339H186.699V151.002L181.668 142.778H183.076L187.388 149.836L191.701 142.778H193.018L188.017 151.002Z" fill="#60F69E"/>
<path d="M75.9219 147.234L60.8581 132.191C60.2292 131.563 59.3607 131.204 58.4623 131.204C57.5638 131.204 56.6953 131.563 56.0664 132.191L41.0026 147.234C41.0026 147.234 41.0026 147.234 40.9727 147.264C39.6549 148.58 39.6549 150.733 40.9727 152.049C41.5716 152.647 42.3802 153.006 43.2188 153.036C43.2487 153.036 43.2786 153.036 43.3385 153.036H43.9375V164.102C43.9375 166.285 45.7344 168.08 47.9206 168.08H53.8203C54.4193 168.08 54.8984 167.601 54.8984 167.003V158.33C54.8984 157.343 55.707 156.505 56.7253 156.505H60.1992C61.1875 156.505 62.0261 157.313 62.0261 158.33V167.003C62.0261 167.601 62.5052 168.08 63.1042 168.08H69.0039C71.1901 168.08 72.987 166.285 72.987 164.102V153.036H73.556C74.4545 153.036 75.323 152.677 75.9519 152.049C77.2396 150.733 77.2396 148.58 75.9219 147.234ZM74.3946 150.524C74.155 150.763 73.8555 150.883 73.5261 150.883H71.8789C71.28 150.883 70.8008 151.361 70.8008 151.96V164.102C70.8008 165.089 69.9922 165.926 68.974 165.926H64.1524V158.33C64.1524 156.147 62.3555 154.352 60.1693 154.352H56.6953C54.5091 154.352 52.7122 156.147 52.7122 158.33V165.926H47.8906C46.9024 165.926 46.0638 165.119 46.0638 164.102V151.96C46.0638 151.361 45.5846 150.883 44.9857 150.883H43.3685C43.3385 150.883 43.3385 150.883 43.3086 150.883C42.9792 150.883 42.6797 150.763 42.4701 150.524C41.9909 150.045 41.9909 149.268 42.4701 148.789L57.5339 133.746C57.7735 133.507 58.0729 133.387 58.4024 133.387C58.7318 133.387 59.0313 133.507 59.2709 133.746L74.3347 148.789C74.8737 149.268 74.8737 150.045 74.3946 150.524Z" fill="white"/>
</svg>
