<svg width="414" height="896" viewBox="0 0 414 896" fill="none" xmlns="http://www.w3.org/2000/svg">
<g clip-path="url(#clip0)">
<rect width="414" height="896" fill="#2FB86E"/>
<path d="M129.582 358.331L167.818 424.537L129.582 490.743H53.1095L14.8733 424.537L53.1095 358.331H129.582Z" fill="white"/>
<path d="M209.637 409.84V435.778H206.919V423.797H190.673V435.778H187.955V409.84H190.673V421.389H206.919V409.84H209.637Z" fill="white"/>
<path d="M229.836 434.295C227.736 433.122 226.13 431.578 224.956 429.602C223.782 427.625 223.165 425.34 223.165 422.87C223.165 420.4 223.721 418.114 224.956 416.138C226.13 414.162 227.736 412.556 229.836 411.444C231.936 410.271 234.222 409.715 236.816 409.715C239.41 409.715 241.696 410.271 243.796 411.444C245.834 412.556 247.502 414.162 248.676 416.138C249.85 418.176 250.467 420.4 250.467 422.932C250.467 425.402 249.85 427.687 248.676 429.725C247.502 431.763 245.834 433.307 243.796 434.419C241.758 435.531 239.41 436.148 236.816 436.148C234.283 435.963 231.936 435.407 229.836 434.295ZM242.375 432.134C244.043 431.207 245.34 429.91 246.267 428.305C247.193 426.637 247.688 424.846 247.688 422.808C247.688 420.77 247.193 418.979 246.267 417.312C245.34 415.644 244.043 414.409 242.375 413.483C240.707 412.556 238.854 412.062 236.816 412.062C234.777 412.062 232.924 412.556 231.257 413.483C229.589 414.409 228.292 415.706 227.303 417.312C226.377 418.979 225.883 420.77 225.883 422.808C225.883 424.846 226.377 426.699 227.303 428.305C228.23 429.972 229.589 431.207 231.257 432.134C232.924 433.06 234.777 433.554 236.816 433.554C238.854 433.554 240.707 433.06 242.375 432.134Z" fill="white"/>
<path d="M290.927 409.839V435.778H288.271V415.027L278.141 432.443H276.843L266.651 415.15V435.778H263.995V409.839H266.281L277.523 429.046L288.703 409.839H290.927Z" fill="white"/>
<path d="M333.734 409.839V435.778H331.078V415.027L320.948 432.443H319.651L309.458 415.15V435.778H306.802V409.839H309.088L320.33 429.046L331.511 409.839H333.734Z" fill="white"/>
<path d="M358.504 426.823V435.778H355.787V426.823L345.409 409.839H348.312L357.207 424.414L366.102 409.839H368.82L358.504 426.823Z" fill="white"/>
<path d="M127.296 419.041L96.2255 387.976C94.9283 386.679 93.137 385.938 91.2839 385.938C89.4307 385.938 87.6394 386.679 86.3422 387.976L55.2715 419.041C55.2715 419.041 55.2715 419.041 55.2097 419.103C52.4918 421.82 52.4918 426.267 55.2097 428.984C56.4451 430.219 58.1129 430.96 59.8425 431.022C59.9043 431.022 59.9661 431.022 60.0896 431.022H61.325V453.873C61.325 458.381 65.0312 462.087 69.5405 462.087H81.7094C82.9448 462.087 83.9331 461.099 83.9331 459.864V441.954C83.9331 439.915 85.6009 438.186 87.7012 438.186H94.8666C96.905 438.186 98.6346 439.854 98.6346 441.954V459.864C98.6346 461.099 99.6229 462.087 100.858 462.087H113.027C117.536 462.087 121.243 458.381 121.243 453.873V431.022H122.416C124.269 431.022 126.061 430.281 127.358 428.984C130.014 426.267 130.014 421.82 127.296 419.041ZM124.146 425.834C123.652 426.328 123.034 426.575 122.355 426.575H118.957C117.722 426.575 116.733 427.564 116.733 428.799V453.873C116.733 455.911 115.066 457.64 112.965 457.64H103.02V441.954C103.02 437.445 99.3141 433.74 94.8048 433.74H87.6394C83.1301 433.74 79.4238 437.445 79.4238 441.954V457.64H69.4788C67.4403 457.64 65.7107 455.973 65.7107 453.873V428.799C65.7107 427.564 64.7224 426.575 63.487 426.575H60.1514C60.0896 426.575 60.0896 426.575 60.0278 426.575C59.3483 426.575 58.7306 426.328 58.2982 425.834C57.3099 424.846 57.3099 423.24 58.2982 422.252L89.369 391.187C89.8631 390.693 90.4808 390.446 91.1603 390.446C91.8398 390.446 92.4575 390.693 92.9517 391.187L124.022 422.252C125.134 423.24 125.134 424.846 124.146 425.834Z" fill="#2FB86E"/>
</g>
<defs>
<clipPath id="clip0">
<rect width="414" height="896" fill="white"/>
</clipPath>
</defs>
</svg>
