<svg width="526" height="215" viewBox="0 0 526 215" fill="none" xmlns="http://www.w3.org/2000/svg">
<path d="M185.7 0L247.6 107.2L185.7 214.4H61.9L0 107.2L61.9 0H185.7Z" fill="#2FB86E"/>
<path d="M315.284 81.3806V123.381H310.904V104.001H284.624V123.381H280.184V81.3806H284.624V100.101H310.904V81.3806H315.284ZM347.352 123.741C343.192 123.741 339.412 122.821 336.012 120.981C332.652 119.101 330.012 116.541 328.092 113.301C326.212 110.061 325.272 106.421 325.272 102.381C325.272 98.3406 326.212 94.7006 328.092 91.4606C330.012 88.2206 332.652 85.6806 336.012 83.8406C339.412 81.9606 343.192 81.0206 347.352 81.0206C351.512 81.0206 355.252 81.9406 358.572 83.7806C361.932 85.6206 364.572 88.1806 366.492 91.4606C368.412 94.7006 369.372 98.3406 369.372 102.381C369.372 106.421 368.412 110.081 366.492 113.361C364.572 116.601 361.932 119.141 358.572 120.981C355.252 122.821 351.512 123.741 347.352 123.741ZM347.352 119.781C350.672 119.781 353.672 119.041 356.352 117.561C359.032 116.041 361.132 113.961 362.652 111.321C364.172 108.641 364.932 105.661 364.932 102.381C364.932 99.1006 364.172 96.1406 362.652 93.5006C361.132 90.8206 359.032 88.7406 356.352 87.2606C353.672 85.7406 350.672 84.9806 347.352 84.9806C344.032 84.9806 341.012 85.7406 338.292 87.2606C335.612 88.7406 333.492 90.8206 331.932 93.5006C330.412 96.1406 329.652 99.1006 329.652 102.381C329.652 105.661 330.412 108.641 331.932 111.321C333.492 113.961 335.612 116.041 338.292 117.561C341.012 119.041 344.032 119.781 347.352 119.781ZM422.944 81.3806V123.381H418.684V89.7806L402.184 118.041H400.084L383.584 89.9606V123.381H379.324V81.3806H382.984L401.224 112.521L419.284 81.3806H422.944ZM480.249 81.3806V123.381H475.989V89.7806L459.489 118.041H457.389L440.889 89.9606V123.381H436.629V81.3806H440.289L458.529 112.521L476.589 81.3806H480.249ZM508.334 108.861V123.381H503.954V108.861L487.154 81.3806H491.894L506.294 104.961L520.694 81.3806H525.134L508.334 108.861Z" fill="#2FB86E"/>
<path d="M182 98.2999L131.7 47.9999C129.6 45.8999 126.7 44.7 123.7 44.7C120.7 44.7 117.8 45.8999 115.7 47.9999L65.4 98.2999C65.4 98.2999 65.4 98.2999 65.3 98.3999C60.9 102.8 60.9 110 65.3 114.4C67.3 116.4 70 117.6 72.8 117.7C72.9 117.7 73 117.7 73.2 117.7H75.2V154.7C75.2 162 81.2 168 88.5 168H108.2C110.2 168 111.8 166.4 111.8 164.4V135.4C111.8 132.1 114.5 129.3 117.9 129.3H129.5C132.8 129.3 135.6 132 135.6 135.4V164.4C135.6 166.4 137.2 168 139.2 168H158.9C166.2 168 172.2 162 172.2 154.7V117.7H174.1C177.1 117.7 180 116.5 182.1 114.4C186.4 110 186.4 102.8 182 98.2999ZM176.9 109.3C176.1 110.1 175.1 110.5 174 110.5H168.5C166.5 110.5 164.9 112.1 164.9 114.1V154.7C164.9 158 162.2 160.8 158.8 160.8H142.7V135.4C142.7 128.1 136.7 122.1 129.4 122.1H117.8C110.5 122.1 104.5 128.1 104.5 135.4V160.8H88.4C85.1 160.8 82.3 158.1 82.3 154.7V114.1C82.3 112.1 80.7 110.5 78.7 110.5H73.3C73.2 110.5 73.2 110.5 73.1 110.5C72 110.5 71 110.1 70.3 109.3C68.7 107.7 68.7 105.1 70.3 103.5L120.6 53.2C121.4 52.4 122.4 51.9999 123.5 51.9999C124.6 51.9999 125.6 52.4 126.4 53.2L176.7 103.5C178.5 105.1 178.5 107.7 176.9 109.3Z" fill="white"/>
</svg>
