<svg width="414" height="667" viewBox="0 0 414 667" fill="none" xmlns="http://www.w3.org/2000/svg">
<path d="M129.582 243.331L167.818 309.537L129.582 375.743H53.1095L14.8733 309.537L53.1095 243.331H129.582Z" fill="white"/>
<path d="M209.637 294.84V320.778H206.919V308.797H190.673V320.778H187.955V294.84H190.673V306.389H206.919V294.84H209.637Z" fill="white"/>
<path d="M229.836 319.295C227.736 318.122 226.13 316.578 224.956 314.602C223.782 312.625 223.165 310.34 223.165 307.87C223.165 305.4 223.721 303.114 224.956 301.138C226.13 299.162 227.736 297.556 229.836 296.444C231.936 295.271 234.222 294.715 236.816 294.715C239.41 294.715 241.696 295.271 243.796 296.444C245.834 297.556 247.502 299.162 248.676 301.138C249.85 303.176 250.467 305.4 250.467 307.932C250.467 310.402 249.85 312.687 248.676 314.725C247.502 316.763 245.834 318.307 243.796 319.419C241.758 320.531 239.41 321.148 236.816 321.148C234.283 320.963 231.936 320.407 229.836 319.295ZM242.375 317.134C244.043 316.207 245.34 314.91 246.267 313.305C247.193 311.637 247.688 309.846 247.688 307.808C247.688 305.77 247.193 303.979 246.267 302.312C245.34 300.644 244.043 299.409 242.375 298.483C240.707 297.556 238.854 297.062 236.816 297.062C234.777 297.062 232.924 297.556 231.257 298.483C229.589 299.409 228.292 300.706 227.303 302.312C226.377 303.979 225.883 305.77 225.883 307.808C225.883 309.846 226.377 311.699 227.303 313.305C228.23 314.972 229.589 316.207 231.257 317.134C232.924 318.06 234.777 318.554 236.816 318.554C238.854 318.554 240.707 318.06 242.375 317.134Z" fill="white"/>
<path d="M290.927 294.839V320.778H288.271V300.027L278.141 317.443H276.843L266.651 300.15V320.778H263.995V294.839H266.281L277.523 314.046L288.703 294.839H290.927Z" fill="white"/>
<path d="M333.734 294.839V320.778H331.078V300.027L320.948 317.443H319.651L309.458 300.15V320.778H306.802V294.839H309.088L320.33 314.046L331.511 294.839H333.734Z" fill="white"/>
<path d="M358.504 311.823V320.778H355.787V311.823L345.409 294.839H348.312L357.207 309.414L366.102 294.839H368.82L358.504 311.823Z" fill="white"/>
<path d="M127.296 304.041L96.2255 272.976C94.9283 271.679 93.137 270.938 91.2839 270.938C89.4307 270.938 87.6394 271.679 86.3422 272.976L55.2715 304.041C55.2715 304.041 55.2715 304.041 55.2097 304.103C52.4918 306.82 52.4918 311.267 55.2097 313.984C56.4451 315.219 58.1129 315.96 59.8425 316.022C59.9043 316.022 59.9661 316.022 60.0896 316.022H61.325V338.873C61.325 343.381 65.0312 347.087 69.5405 347.087H81.7094C82.9448 347.087 83.9331 346.099 83.9331 344.864V326.954C83.9331 324.915 85.6009 323.186 87.7012 323.186H94.8666C96.905 323.186 98.6346 324.854 98.6346 326.954V344.864C98.6346 346.099 99.6229 347.087 100.858 347.087H113.027C117.536 347.087 121.243 343.381 121.243 338.873V316.022H122.416C124.269 316.022 126.061 315.281 127.358 313.984C130.014 311.267 130.014 306.82 127.296 304.041ZM124.146 310.834C123.652 311.328 123.034 311.575 122.355 311.575H118.957C117.722 311.575 116.733 312.564 116.733 313.799V338.873C116.733 340.911 115.066 342.64 112.965 342.64H103.02V326.954C103.02 322.445 99.3141 318.74 94.8048 318.74H87.6394C83.1301 318.74 79.4238 322.445 79.4238 326.954V342.64H69.4788C67.4403 342.64 65.7107 340.973 65.7107 338.873V313.799C65.7107 312.564 64.7224 311.575 63.487 311.575H60.1514C60.0896 311.575 60.0896 311.575 60.0278 311.575C59.3483 311.575 58.7306 311.328 58.2982 310.834C57.3099 309.846 57.3099 308.24 58.2982 307.252L89.369 276.187C89.8631 275.693 90.4808 275.446 91.1603 275.446C91.8398 275.446 92.4575 275.693 92.9517 276.187L124.022 307.252C125.134 308.24 125.134 309.846 124.146 310.834Z" fill="#2FB86E"/>
</svg>
