<?xml version="1.0" encoding="utf-8"?>
<!-- Generator: Adobe Illustrator 22.0.0, SVG Export Plug-In . SVG Version: 6.00 Build 0)  -->
<svg version="1.1" id="Layer_1" xmlns="http://www.w3.org/2000/svg" xmlns:xlink="http://www.w3.org/1999/xlink" x="0px" y="0px"
	 viewBox="0 0 1920 1080" style="enable-background:new 0 0 1920 1080;" xml:space="preserve">
<style type="text/css">
	.st0{fill:#2FB86E;}
	.st1{font-family:'Montserrat-Regular';}
	.st2{font-size:60px;}
	.st3{letter-spacing:12;}
	.st4{fill:#FFFFFF;}
</style>
<polygon class="st0" points="614.5,394 676.4,501.2 614.5,608.4 490.7,608.4 428.8,501.2 490.7,394 "/>
<text transform="matrix(1 0 0 1 702.1436 519.3807)" class="st0 st1 st2 st3">HOMMY</text>
<g>
	<path class="st4" d="M610.8,492.3C610.8,492.3,610.8,492.3,610.8,492.3L560.5,442c-2.1-2.1-5-3.3-8-3.3s-5.9,1.2-8,3.3l-50.3,50.3
		c0,0,0,0-0.1,0.1c-4.4,4.4-4.4,11.6,0,16c2,2,4.7,3.2,7.5,3.3c0.1,0,0.2,0,0.4,0h2v37c0,7.3,6,13.3,13.3,13.3H537
		c2,0,3.6-1.6,3.6-3.6v-29c0-3.3,2.7-6.1,6.1-6.1h11.6c3.3,0,6.1,2.7,6.1,6.1v29c0,2,1.6,3.6,3.6,3.6h19.7c7.3,0,13.3-6,13.3-13.3
		v-37h1.9c3,0,5.9-1.2,8-3.3C615.2,504,615.2,496.8,610.8,492.3z M605.7,503.3c-0.8,0.8-1.8,1.2-2.9,1.2h-5.5c-2,0-3.6,1.6-3.6,3.6
		v40.6c0,3.3-2.7,6.1-6.1,6.1h-16.1v-25.4c0-7.3-6-13.3-13.3-13.3h-11.6c-7.3,0-13.3,6-13.3,13.3v25.4h-16.1c-3.3,0-6.1-2.7-6.1-6.1
		v-40.6c0-2-1.6-3.6-3.6-3.6h-5.4c-0.1,0-0.1,0-0.2,0c-1.1,0-2.1-0.4-2.8-1.2c-1.6-1.6-1.6-4.2,0-5.8c0,0,0,0,0,0l0,0l50.3-50.3
		c0.8-0.8,1.8-1.2,2.9-1.2c1.1,0,2.1,0.4,2.9,1.2l50.3,50.3c0,0,0,0,0,0C607.3,499.1,607.3,501.7,605.7,503.3z"/>
</g>
</svg>
